<svg width="144" height="64" viewBox="0 0 144 64" fill="none" xmlns="http://www.w3.org/2000/svg">
<rect opacity="0.01" width="144" height="64" fill="#FF963C"/>
<g clip-path="url(#clip0_354_2348)">
<path d="M31.8646 27.5166H41.3419V35.3131H44.9509V16.0281H41.3419V24.1553H31.8646V16.0281H28.228V35.3131H31.8646V27.5166Z" fill="#FF963C"/>
<path fill-rule="evenodd" clip-rule="evenodd" d="M53.6932 35.6437C55.7594 35.6437 58.1012 34.9274 59.5338 33.4396L57.3848 31.3182C56.6134 32.1173 54.988 32.5856 53.7483 32.5856C51.3789 32.5856 49.9188 31.3735 49.6984 29.6929H60.3052C60.8286 24.1002 57.991 21.29 53.4452 21.29C49.0372 21.29 46.2271 24.2655 46.2271 28.3979C46.2271 32.7509 49.0096 35.6437 53.6932 35.6437ZM53.5553 24.2655C55.4839 24.2655 56.8615 25.1471 57.0817 26.9103H49.7536C50.2494 25.1471 51.7372 24.2655 53.5553 24.2655H53.5553Z" fill="#FF963C"/>
<path fill-rule="evenodd" clip-rule="evenodd" d="M68.8958 35.6984C70.411 35.6709 72.5324 34.8993 73.3038 33.3015L73.4691 35.2852H76.6373V21.7029H73.4139L73.3038 23.5763C72.5324 22.2263 70.7968 21.3723 68.9785 21.3723C65.0112 21.3447 61.8979 23.7967 61.8979 28.4802C61.8979 33.2462 64.8735 35.7259 68.8957 35.6984L68.8958 35.6984ZM69.2814 24.3752C74.5711 24.3752 74.5711 32.6125 69.2814 32.6125C67.0498 32.6125 65.2592 31.0699 65.2592 28.4802C65.2592 25.8905 67.0498 24.3752 69.2814 24.3752Z" fill="#FF963C"/>
<rect x="79.0322" y="16.0276" width="3.33355" height="19.2575" fill="#FF963C"/>
<path d="M98.618 28.3424C98.618 26.3037 99.9954 24.6232 101.979 24.6232C103.77 24.6232 105.065 25.6702 105.065 28.1495V35.285H108.426V28.1221C108.426 24.1273 106.718 21.5101 102.861 21.5101C101.318 21.5101 99.8302 21.9784 98.618 23.5487V16H95.2568V35.285H98.618V28.3424Z" fill="#FF963C"/>
<path d="M86.8418 30.4909C86.8418 33.8797 88.7703 35.5602 91.718 35.4501C92.7376 35.4225 93.5364 35.2572 94.5007 34.8714L93.564 32.0062C93.0681 32.2543 92.4619 32.4195 91.9385 32.4195C90.8916 32.4195 90.1753 31.7859 90.1753 30.491V24.6228H93.9497V21.7301H90.2029V18.418H86.8418V21.7301H84.3071V24.6228H86.8418L86.8418 30.4909Z" fill="#FF963C"/>
<path d="M121.449 21.3721L117.771 29.6346L114.108 21.3721H110.56L115.993 33.6289L108.36 50.7745L95.0009 39.4341L16 39.4408V42.5778L93.775 42.5792L109.533 56L125 21.3721H121.449Z" fill="#FF963C"/>
</g>
<defs>
<clipPath id="clip0_354_2348">
<rect width="109" height="39.9999" fill="white" transform="translate(16 16)"/>
</clipPath>
</defs>
</svg>
